<svg xmlns="http://www.w3.org/2000/svg" viewBox="0 0 600 360" role="img" aria-label="Caminata o bicicleta con Cardio suave">
<defs><linearGradient id="bg" x1="0" x2="1"><stop stop-color="#eff6ff"/><stop offset="1" stop-color="#eef2ff"/></linearGradient></defs>
<rect width="600" height="360" rx="28" fill="url(#bg)"/>
<circle cx="505" cy="65" r="75" fill="#dbeafe" opacity=".7"/>
<g fill="none" stroke="#1e3a8a" stroke-width="7"><circle cx="245" cy="235" r="58"/><circle cx="410" cy="235" r="58"/><path d="M245 235l72-95 93 95h-165l72-95 42 95M317 140h48M390 108h50"/></g>
<g fill="none" stroke="#0f172a" stroke-width="9" stroke-linecap="round"><circle cx="300" cy="95" r="24" fill="#fde68a"/><path d="M300 120l-18 92M290 155l-62 38M290 155l68 22M282 212l-65 70M282 212l82 55"/></g>
<rect x="22" y="292" width="556" height="48" rx="16" fill="#fff" opacity=".92"/>
<text x="42" y="322" font-family="Arial,sans-serif" font-size="22" font-weight="700" fill="#0f172a">Caminata o bicicleta</text>
</svg>