<svg xmlns="http://www.w3.org/2000/svg" viewBox="0 0 600 360" role="img" aria-label="Extensión de piernas con Máquina de extensión">
<defs><linearGradient id="bg" x1="0" x2="1"><stop stop-color="#eff6ff"/><stop offset="1" stop-color="#eef2ff"/></linearGradient></defs>
<rect width="600" height="360" rx="28" fill="url(#bg)"/>
<circle cx="505" cy="65" r="75" fill="#dbeafe" opacity=".7"/>
<g fill="none" stroke="#1e3a8a" stroke-width="8"><rect x="205" y="72" width="190" height="205" rx="25"/><path d="M230 105h140M260 277v35M340 277v35M245 180h110M300 105v75"/><circle cx="300" cy="150" r="20" fill="#93c5fd"/></g>
<g fill="none" stroke="#0f172a" stroke-width="9" stroke-linecap="round"><circle cx="300" cy="95" r="24" fill="#fde68a"/><path d="M300 120v95M300 155l-65 45M300 155l65 45M300 215l-50 75M300 215l50 75"/></g>
<rect x="22" y="292" width="556" height="48" rx="16" fill="#fff" opacity=".92"/>
<text x="42" y="322" font-family="Arial,sans-serif" font-size="22" font-weight="700" fill="#0f172a">Extensión de piernas</text>
</svg>